# xmcd
#
# Track frame offsets: 
#        150
#        9935
#        22430
#        33050
#        46752
#        60810
#        75417
#        86205
#        96785
#        109820
#        120105
#        132015
#        143772
#        152560
#        165120
#        178292
#
# Disc length: 2517 seconds
#
# Revision: 0
# Processed by: cddbd v1.5.2PL0 Copyright (c) Steve Scherf et al.
# Submitted via: ExactAudioCopy v0.95a5
#
DISCID=b009d310
DTITLE=Various Artist - Live from the Grand Old Opry, Disc 1
DYEAR=2004
DGENRE=Country
TTITLE0=Hank Williams - Dear John
TTITLE1=Ernest Tubb - Half A Mind
TTITLE2=Hawkshaw Hawkins - She Was There But Now She's Gone
TTITLE3=Hank Snow - Nobody's Child
TTITLE4=Marty Robbins - The Hanging Tree
TTITLE5=Faron Young - Country Girl
TTITLE6=Tex Williams - Talking Boogie
TTITLE7=Ray Price - I'll Sail My Ship Alone
TTITLE8=Justin Tubb - Buster's Gang
TTITLE9=Margie Bowes - Poor Old Heartsick Me
TTITLE10=Red Foley - Chattanoogie Shoe Shine Boy
TTITLE11=Porter Wagoner - I'm Gonna Sing
TTITLE12=Faron Young - That's The Way It's Gotta Be
TTITLE13=Hank Williams - Jambalaya (On The Bayou)
TTITLE14=Ernest Tubb - Educated Mama
TTITLE15=Hawkshaw Hawkins - Are You Happy
EXTD=
EXTT0=
EXTT1=
EXTT2=
EXTT3=
EXTT4=
EXTT5=
EXTT6=
EXTT7=
EXTT8=
EXTT9=
EXTT10=
EXTT11=
EXTT12=
EXTT13=
EXTT14=
EXTT15=
PLAYORDER=
